<svg width="272" height="19" viewBox="0 0 272 19" fill="none" xmlns="http://www.w3.org/2000/svg">
<line y1="8.5" x2="72" y2="8.5" stroke="#CFCFCF" stroke-width="2"/>
<line x1="200" y1="8.5" x2="272" y2="8.5" stroke="#CFCFCF" stroke-width="2"/>
<path d="M99.6877 10.346C99.6877 11.308 99.5274 12.1487 99.2067 12.868C98.8947 13.5787 98.4137 14.1333 97.7637 14.532C97.1137 14.9307 96.2817 15.13 95.2677 15.13C94.2624 15.13 93.4304 14.9307 92.7717 14.532C92.1217 14.1333 91.6364 13.5743 91.3157 12.855C91.0037 12.1357 90.8477 11.295 90.8477 10.333C90.8477 9.371 91.0037 8.53467 91.3157 7.824C91.6364 7.11333 92.1217 6.563 92.7717 6.173C93.4304 5.77433 94.2667 5.575 95.2807 5.575C96.2861 5.575 97.1137 5.77433 97.7637 6.173C98.4137 6.563 98.8947 7.11767 99.2067 7.837C99.5274 8.54767 99.6877 9.384 99.6877 10.346ZM92.9147 10.346C92.9147 11.3167 93.1011 12.0837 93.4737 12.647C93.8464 13.2017 94.4444 13.479 95.2677 13.479C96.1084 13.479 96.7107 13.2017 97.0747 12.647C97.4387 12.0837 97.6207 11.3167 97.6207 10.346C97.6207 9.36667 97.4387 8.59967 97.0747 8.045C96.7107 7.49033 96.1127 7.213 95.2807 7.213C94.4487 7.213 93.8464 7.49033 93.4737 8.045C93.1011 8.59967 92.9147 9.36667 92.9147 10.346ZM105.809 7.772C105.905 7.772 106.017 7.77633 106.147 7.785C106.277 7.79367 106.381 7.80667 106.459 7.824L106.316 9.644C106.256 9.62667 106.165 9.61367 106.043 9.605C105.931 9.58767 105.831 9.579 105.744 9.579C105.415 9.579 105.099 9.63967 104.795 9.761C104.492 9.87367 104.245 10.06 104.054 10.32C103.872 10.58 103.781 10.9353 103.781 11.386V15H101.844V7.902H103.313L103.599 9.098H103.69C103.898 8.734 104.184 8.422 104.548 8.162C104.912 7.902 105.333 7.772 105.809 7.772ZM117.534 12.426C117.534 13.2493 117.235 13.908 116.637 14.402C116.047 14.8873 115.207 15.13 114.115 15.13C113.135 15.13 112.26 14.9437 111.489 14.571V12.738C111.931 12.9287 112.386 13.1063 112.854 13.271C113.33 13.427 113.803 13.505 114.271 13.505C114.756 13.505 115.098 13.414 115.298 13.232C115.506 13.0413 115.61 12.803 115.61 12.517C115.61 12.283 115.527 12.0837 115.363 11.919C115.207 11.7543 114.994 11.6027 114.726 11.464C114.457 11.3167 114.149 11.1607 113.803 10.996C113.586 10.892 113.352 10.7707 113.101 10.632C112.849 10.4847 112.607 10.307 112.373 10.099C112.147 9.88233 111.961 9.62233 111.814 9.319C111.666 9.01567 111.593 8.65167 111.593 8.227C111.593 7.395 111.874 6.74933 112.438 6.29C113.001 5.822 113.768 5.588 114.739 5.588C115.224 5.588 115.683 5.64433 116.117 5.757C116.559 5.86967 117.018 6.03 117.495 6.238L116.858 7.772C116.433 7.59867 116.052 7.46433 115.714 7.369C115.376 7.27367 115.029 7.226 114.674 7.226C114.301 7.226 114.015 7.31267 113.816 7.486C113.616 7.65933 113.517 7.88467 113.517 8.162C113.517 8.49133 113.664 8.75133 113.959 8.942C114.253 9.13267 114.691 9.36667 115.272 9.644C115.748 9.86933 116.151 10.1033 116.481 10.346C116.819 10.5887 117.079 10.8747 117.261 11.204C117.443 11.5333 117.534 11.9407 117.534 12.426ZM120.43 5.12C120.716 5.12 120.963 5.18933 121.171 5.328C121.379 5.458 121.483 5.705 121.483 6.069C121.483 6.42433 121.379 6.67133 121.171 6.81C120.963 6.94867 120.716 7.018 120.43 7.018C120.135 7.018 119.884 6.94867 119.676 6.81C119.477 6.67133 119.377 6.42433 119.377 6.069C119.377 5.705 119.477 5.458 119.676 5.328C119.884 5.18933 120.135 5.12 120.43 5.12ZM121.392 7.902V15H119.455V7.902H121.392ZM126.107 7.772C126.982 7.772 127.667 8.11867 128.161 8.812H128.213L128.369 7.902H130.007V15.013C130.007 16.027 129.708 16.7983 129.11 17.327C128.512 17.8557 127.628 18.12 126.458 18.12C125.955 18.12 125.487 18.0897 125.054 18.029C124.629 17.9683 124.213 17.86 123.806 17.704V16.157C124.681 16.521 125.604 16.703 126.575 16.703C127.571 16.703 128.07 16.1657 128.07 15.091V14.948C128.07 14.8007 128.074 14.649 128.083 14.493C128.1 14.337 128.113 14.1983 128.122 14.077H128.07C127.827 14.4497 127.537 14.7183 127.199 14.883C126.861 15.0477 126.479 15.13 126.055 15.13C125.214 15.13 124.555 14.8093 124.079 14.168C123.611 13.518 123.377 12.6167 123.377 11.464C123.377 10.3027 123.619 9.397 124.105 8.747C124.59 8.097 125.257 7.772 126.107 7.772ZM126.718 9.345C125.808 9.345 125.353 10.06 125.353 11.49C125.353 12.9027 125.816 13.609 126.744 13.609C127.238 13.609 127.602 13.4703 127.836 13.193C128.078 12.907 128.2 12.413 128.2 11.711V11.477C128.2 10.7143 128.083 10.1683 127.849 9.839C127.615 9.50967 127.238 9.345 126.718 9.345ZM136.452 7.772C137.215 7.772 137.826 7.98 138.285 8.396C138.745 8.80333 138.974 9.462 138.974 10.372V15H137.037V10.853C137.037 10.3417 136.946 9.96033 136.764 9.709C136.582 9.449 136.292 9.319 135.893 9.319C135.304 9.319 134.901 9.52267 134.684 9.93C134.468 10.3287 134.359 10.905 134.359 11.659V15H132.422V7.902H133.904L134.164 8.812H134.268C134.494 8.448 134.801 8.18367 135.191 8.019C135.59 7.85433 136.01 7.772 136.452 7.772ZM148.75 15H144.525V13.882L145.656 13.362V7.356L144.525 6.836V5.718H148.75V6.836L147.619 7.356V13.362L148.75 13.882V15ZM154.596 7.772C155.359 7.772 155.97 7.98 156.429 8.396C156.888 8.80333 157.118 9.462 157.118 10.372V15H155.181V10.853C155.181 10.3417 155.09 9.96033 154.908 9.709C154.726 9.449 154.436 9.319 154.037 9.319C153.448 9.319 153.045 9.52267 152.828 9.93C152.611 10.3287 152.503 10.905 152.503 11.659V15H150.566V7.902H152.048L152.308 8.812H152.412C152.637 8.448 152.945 8.18367 153.335 8.019C153.734 7.85433 154.154 7.772 154.596 7.772ZM174.824 5.718L172.458 15H170.222L168.961 10.125C168.935 10.0297 168.9 9.88667 168.857 9.696C168.822 9.50533 168.779 9.29733 168.727 9.072C168.684 8.84667 168.645 8.63433 168.61 8.435C168.575 8.227 168.549 8.06667 168.532 7.954C168.523 8.06667 168.497 8.227 168.454 8.435C168.419 8.63433 168.38 8.84667 168.337 9.072C168.294 9.28867 168.25 9.49667 168.207 9.696C168.164 9.88667 168.129 10.034 168.103 10.138L166.855 15H164.619L162.253 5.718H164.19L165.373 10.788C165.425 10.9873 165.481 11.2387 165.542 11.542C165.603 11.8453 165.659 12.1487 165.711 12.452C165.763 12.7553 165.802 13.011 165.828 13.219C165.854 13.0023 165.893 12.7467 165.945 12.452C165.997 12.1487 166.049 11.8583 166.101 11.581C166.162 11.295 166.214 11.074 166.257 10.918L167.609 5.718H169.468L170.82 10.918C170.863 11.0653 170.911 11.282 170.963 11.568C171.024 11.854 171.08 12.1487 171.132 12.452C171.184 12.7553 171.223 13.011 171.249 13.219C171.275 13.0023 171.314 12.7467 171.366 12.452C171.418 12.1487 171.474 11.8453 171.535 11.542C171.604 11.2387 171.661 10.9873 171.704 10.788L172.887 5.718H174.824ZM177.2 5.12C177.486 5.12 177.733 5.18933 177.941 5.328C178.149 5.458 178.253 5.705 178.253 6.069C178.253 6.42433 178.149 6.67133 177.941 6.81C177.733 6.94867 177.486 7.018 177.2 7.018C176.906 7.018 176.654 6.94867 176.446 6.81C176.247 6.67133 176.147 6.42433 176.147 6.069C176.147 5.705 176.247 5.458 176.446 5.328C176.654 5.18933 176.906 5.12 177.2 5.12ZM178.162 7.902V15H176.225V7.902H178.162ZM183.566 13.583C183.783 13.583 183.991 13.5613 184.19 13.518C184.389 13.4747 184.589 13.4227 184.788 13.362V14.805C184.58 14.8917 184.32 14.9653 184.008 15.026C183.705 15.0953 183.371 15.13 183.007 15.13C182.582 15.13 182.201 15.0607 181.863 14.922C181.534 14.7833 181.269 14.545 181.07 14.207C180.879 13.8603 180.784 13.3837 180.784 12.777V9.358H179.861V8.539L180.927 7.889L181.486 6.394H182.721V7.902H184.71V9.358H182.721V12.777C182.721 13.0457 182.799 13.2493 182.955 13.388C183.111 13.518 183.315 13.583 183.566 13.583ZM188.54 7.135C188.54 7.48167 188.527 7.81533 188.501 8.136C188.484 8.45667 188.466 8.682 188.449 8.812H188.553C188.778 8.448 189.069 8.18367 189.424 8.019C189.779 7.85433 190.174 7.772 190.607 7.772C191.378 7.772 191.994 7.98 192.453 8.396C192.921 8.80333 193.155 9.462 193.155 10.372V15H191.218V10.853C191.218 9.83033 190.837 9.319 190.074 9.319C189.493 9.319 189.09 9.52267 188.865 9.93C188.648 10.3287 188.54 10.905 188.54 11.659V15H186.603V5.12H188.54V7.135Z" fill="#3D3D3D"/>
</svg>
